<svg width="16" height="16" viewBox="0 0 16 16" fill="none" xmlns="http://www.w3.org/2000/svg">
<path fill-rule="evenodd" clip-rule="evenodd" d="M5.76001 0.96C5.76001 0.429807 6.18982 0 6.72001 0C10.2546 0 13.12 2.86538 13.12 6.4C13.12 6.93019 12.6902 7.36 12.16 7.36C11.6298 7.36 11.2 6.93019 11.2 6.4C11.2 3.92576 9.19425 1.92 6.72001 1.92C6.18982 1.92 5.76001 1.49019 5.76001 0.96Z" fill="#0DBD8B"/>
<path fill-rule="evenodd" clip-rule="evenodd" d="M10.24 15.04C10.24 15.5702 9.81018 16 9.27999 16C5.74537 16 2.87999 13.1346 2.87999 9.6C2.87999 9.06981 3.3098 8.64 3.83999 8.64C4.37018 8.64 4.79999 9.06981 4.79999 9.6C4.79999 12.0742 6.80575 14.08 9.27999 14.08C9.81018 14.08 10.24 14.5098 10.24 15.04Z" fill="#0DBD8B"/>
<path fill-rule="evenodd" clip-rule="evenodd" d="M0.96 10.24C0.429807 10.24 -1.87874e-08 9.81018 -4.19629e-08 9.27999C-1.96466e-07 5.74537 2.86538 2.87999 6.4 2.87999C6.93019 2.87999 7.36 3.3098 7.36 3.83999C7.36 4.37018 6.93019 4.79999 6.4 4.79999C3.92576 4.79999 1.92 6.80575 1.92 9.27999C1.92 9.81018 1.49019 10.24 0.96 10.24Z" fill="#0DBD8B"/>
<path fill-rule="evenodd" clip-rule="evenodd" d="M15.04 5.76001C15.5702 5.76001 16 6.18982 16 6.72001C16 10.2546 13.1346 13.12 9.6 13.12C9.06981 13.12 8.64 12.6902 8.64 12.16C8.64 11.6298 9.06981 11.2 9.6 11.2C12.0742 11.2 14.08 9.19425 14.08 6.72001C14.08 6.18982 14.5098 5.76001 15.04 5.76001Z" fill="#0DBD8B"/>
</svg>
